<svg xmlns="http://www.w3.org/2000/svg" xmlns:xlink="http://www.w3.org/1999/xlink" width="425" height="894" viewBox="0 0 425 894">
  <defs>
    <clipPath id="clip-Mesa_de_trabajo_1">
      <rect width="425" height="894"/>
    </clipPath>
  </defs>
  <g id="Mesa_de_trabajo_1" data-name="Mesa de trabajo – 1" clip-path="url(#clip-Mesa_de_trabajo_1)">
    <rect width="425" height="894" fill="#fff"/>
    <g id="Doubs" transform="translate(75.573 405.948) rotate(19)" opacity="0.85">
      <path id="Shape" d="M353,119.613c0,117.078-170.93,306.628-234.388,306.628S0,352.748,0,166.212C0,64.209,46.188,0,109.646,0S353,2.535,353,119.613Z" transform="translate(14.437 26.056)" fill="#e16197"/>
      <path id="Shape-2" data-name="Shape" d="M49.749,321.363C-35.433,303.976,9.419,184.77,33.665,123.914c22.46-56.377,73-133.642,159.156-122.9,100.9,12.575,138.285,144.98,127.611,197.283S134.93,338.75,49.749,321.363Z" transform="translate(0 184.686)" fill="#9844af"/>
      <path id="Shape-3" data-name="Shape" d="M128.6,239.245c-85.2-17.4-151.529-71.42-121.088-157.271,42.96-121.153,83.725-75.256,169.9-64.513C278.338,30.043,312.874,123.66,302.2,175.99S213.8,256.642,128.6,239.245Z" transform="translate(47.185 248.42)" fill="#f4f3ef" opacity="0.1"/>
      <path id="Shape-4" data-name="Shape" d="M96.909,191.387C28.2,177.334-14.421,131.658,4.5,85.577,22.032,42.888,104.758-40.562,134.046,23.16c43.318,94.245,109.993,82.084,101.906,121.786S165.614,205.441,96.909,191.387Z" transform="translate(55.635 337.506)" fill="#e2164b"/>
      <path id="Shape-5" data-name="Shape" d="M31.448,66.379C49.943-14.82,148.6-24.236,136.441,53.2c-8.4,53.487,16.613,88.306,56.6,134.632C223.294,222.875,143.638,275.7,21.65,211-10.685,190.315-6.3,125.568,31.448,66.379Z" transform="translate(24.648 296.66)" fill="#2e39a9"/>
      <path id="Shape-6" data-name="Shape" d="M26.958,21.824c70.069-109.7,130.1,233.935,4.963,154.03C-8.62,149.967-10.842,81.005,26.958,21.824Z" transform="translate(9.859 333.809)" fill="#0ab7e0"/>
      <path id="Shape-7" data-name="Shape" d="M145.5,24.139c-8.724,81.054,224.448,4.9,184.6,75.979S183.442,200.582,126.153,142.7C79.223,95.277-29.025,148.4,7.333,92.431,40.154,41.905,152.558-41.427,145.5,24.139Z" transform="translate(263.385 62.853)" fill="#ffcd00"/>
      <path id="Shape-8" data-name="Shape" d="M177.5,126.72C97.835,131.306,132.376,231.706,201.06,266.2,140.3,266.2,0,208.968,0,138.983S6.727,0,67.485,0,177.5,56.734,177.5,126.72Z" transform="translate(445.079 290.322)" fill="#0ab7e0"/>
      <path id="Shape-9" data-name="Shape" d="M182.222,146.878c0,81.118-45.252,110.874-93.984,110.874S0,191.992,0,110.874,45.251,0,93.984,0,182.222,65.759,182.222,146.878Z" transform="translate(573.603 107.396)" fill="#e16197"/>
      <path id="Shape-10" data-name="Shape" d="M131.91,182.375c-31.9,20.534-54.127,17.536-97.046-5.37S-11.874,119.5,26.333,48.16,98.6-.72,131.91,23.578C175.456,55.343,214.9,128.957,131.91,182.375Z" transform="translate(523.426 0)" fill="#9844af"/>
      <path id="Shape-11" data-name="Shape" d="M137.315.711C248.7,11.853,290.56,156.021,282.713,234.872S230.077,224.4,118.688,213.258,25.721,175.431,33.568,96.58C-45.6,113.325,25.926-10.432,137.315.711Z" transform="translate(441.03 88.381)" fill="#2e39a9"/>
      <path id="Shape-12" data-name="Shape" d="M105.028.507c60.787,6.065,78.286,124.256,74,167.17s-28.724-5.7-89.512-11.764S-3.908,129.791.374,86.878,44.241-5.557,105.028.507Z" transform="translate(526.884 175.539)" fill="#f4f3ef" opacity="0.1"/>
      <path id="Shape-13" data-name="Shape" d="M145.606.292c39.9,3.981,9.146,99.519,5.371,137.358s-18.788-4.374-58.685-8.355S-3.593,109.434.181,71.6,105.71-3.689,145.606.292Z" transform="translate(480.291 207.398)" fill="#0ab7e0"/>
      <path id="Shape-14" data-name="Shape" d="M213.835,79.238c41.444,74.721-1.8,185.622-50.88,213.019S44.417,238.2,9.612,175.9,39.96-17.377,117.579,1.922C158.085,11.993,193.595,42.748,213.835,79.238Z" transform="translate(498.074 258.455)" fill="#9844af"/>
      <path id="Shape-15" data-name="Shape" d="M153.689,134.467c2.25,51.478-15.986,87.995-45.822,104.658s-73.336-29.608-93.213-70.766C-27.75,80.554,29.274-36.448,91.381,10.9,129.488,39.949,151.594,86.514,153.689,134.467Z" transform="translate(554.412 310.92)" fill="#f4f3ef" opacity="0.1"/>
      <path id="Shape-16" data-name="Shape" d="M88.941,40.864c2.249,51.489-21.931,102.027-45.8,104.68C10.218,149.2.992,108.991.027,75.849c-.991-34.026,25.737-121.8,43.117-45.64C55.983,86.473,86.846-7.1,88.941,40.864Z" transform="translate(659.344 379.408)" fill="#e2164b"/>
      <path id="Shape-17" data-name="Shape" d="M328.637,137.847C297.518,197.831,166.287,273.06,43.213,242.786s55.861-46.222,55.861-116.157S138.584,0,199.247,0c26.088,0,50.049,10.476,68.891,27.989C307.1,52.892,347.845,100.823,328.637,137.847Z" transform="translate(312.78 290.498)" fill="#ff612e"/>
      <path id="Shape-18" data-name="Shape" d="M155.925,179.2c-70.155,17.756-172.66,11.271-153.6-42.155C33.833,48.7,110.085-10.378,204.405,1.522,241.517,6.2,277.03,35.268,294.714,62.3,335.386,124.466,262.969,152.108,155.925,179.2Z" transform="translate(291.907 264.265)" fill="#ffcd00"/>
      <path id="Shape-19" data-name="Shape" d="M82.829,1.44c69.882,13.094,165.4,69.926,124.145,153.4C184.1,201.127,81.7,240.14,46.228,224.294-12.577,198.03-29.894-19.681,82.829,1.44Z" transform="translate(342.788 209.863)" fill="#b2cd0d"/>
      <path id="Shape-20" data-name="Shape" d="M251.8,131C251.8,203.26,164.933,309.55,95.4,309.55S0,203.26,0,131,25.87,0,95.4,0,251.8,58.746,251.8,131Z" transform="translate(345.338 133.78) rotate(35.025)" fill="#0ab7e0"/>
      <path id="Shape-21" data-name="Shape" d="M244.547,130.838c0,72.167-70.968,178.323-127.776,178.323S0,226.747,0,154.58,59.962,0,116.771,0,244.547,58.671,244.547,130.838Z" transform="matrix(0.682, 0.731, -0.731, 0.682, 348.243, 127.164)" fill="#2e39a9"/>
    </g>
  </g>
</svg>
