<svg xmlns="http://www.w3.org/2000/svg" width="32.146" height="28" viewBox="0 0 32.146 28">
  <g id="Grupo_83" data-name="Grupo 83" transform="translate(1725.337 102.092)">
    <g id="Grupo_82" data-name="Grupo 82">
      <rect id="Rectángulo_1763" data-name="Rectángulo 1763" width="1" height="3" rx="0.5" transform="translate(-1716.204 -80.072) rotate(39)" fill="#06a940" opacity="0.73"/>
      <rect id="Rectángulo_1766" data-name="Rectángulo 1766" width="1" height="3" rx="0.5" transform="translate(-1709.259 -77.092)" fill="#f66e02" opacity="0.73"/>
      <rect id="Rectángulo_1772" data-name="Rectángulo 1772" width="1" height="3" rx="0.5" transform="translate(-1709.259 -102.092)" fill="#e63865" opacity="0.734"/>
      <rect id="Rectángulo_1774" data-name="Rectángulo 1774" width="1" height="3" rx="0.5" transform="matrix(0.891, 0.454, -0.454, 0.891, -1698.524, -100.155)" fill="#06a940" opacity="0.734"/>
      <rect id="Rectángulo_1773" data-name="Rectángulo 1773" width="1" height="3" rx="0.5" transform="matrix(0.848, -0.53, 0.53, 0.848, -1718.978, -100.599)" fill="#005bf6" opacity="0.734"/>
      <rect id="Rectángulo_1769" data-name="Rectángulo 1769" width="1" height="3" rx="0.5" transform="translate(-1703.23 -80.173) rotate(-50)" fill="#e63865" opacity="0.73"/>
      <rect id="Rectángulo_1770" data-name="Rectángulo 1770" width="1" height="3" rx="0.5" transform="translate(-1699.319 -84.333) rotate(-81)" fill="#005bf6" opacity="0.73"/>
      <rect id="Rectángulo_1771" data-name="Rectángulo 1771" width="1" height="3" rx="0.5" transform="translate(-1696.136 -90.815) rotate(-101)" fill="#830da8" opacity="0.73"/>
      <rect id="Rectángulo_1765" data-name="Rectángulo 1765" width="1" height="3" rx="0.5" transform="matrix(0.53, 0.848, -0.848, 0.53, -1719.752, -85.811)" fill="#830da8" opacity="0.73"/>
      <rect id="Rectángulo_1767" data-name="Rectángulo 1767" width="1" height="3" rx="0.5" transform="translate(-1722.181 -92.493) rotate(112)" fill="#f66e02" opacity="0.73"/>
      <g id="Grupo_79" data-name="Grupo 79" transform="translate(24 -30)">
        <g id="Grupo_77" data-name="Grupo 77" transform="translate(-41 -14)">
          <g id="Grupo_73" data-name="Grupo 73" transform="translate(-1701.223 -52.386)">
            <path id="Trazado_94" data-name="Trazado 94" d="M-1653.049,864.981l-2.936-1.753h-3.167l-1.86,1.753-1.02,2.442,1.02,2.689,3.764,3.826,4.2,4.758,8.518-8.584,1-3.6-2.542-3.281h-5.544Z" transform="translate(1662.223 -862.614)" fill="#e63865"/>
            <path id="heart" d="M18.482,4.413a4.828,4.828,0,0,0-6.829,0l-.93.93-.93-.93a4.829,4.829,0,0,0-6.829,6.829l.93.93L10.723,19l6.829-6.829.93-.93a4.828,4.828,0,0,0,0-6.829Z" transform="translate(-1.549 -2.8)" fill="none" stroke="#e63865" stroke-linecap="round" stroke-linejoin="round" stroke-width="2"/>
          </g>
          <path id="Trazado_104" data-name="Trazado 104" d="M-1726.987-13.136h19.885l.257.772v1.358l-.257.568h-20.1V-11.92l.215-.444Z" transform="translate(25 -35.954)" fill="#f66e02"/>
          <path id="Trazado_105" data-name="Trazado 105" d="M-1727.2-10.437h20.271l-.422,1.184-.713,1.282-.67.7h-16.63l-1.008-1.275-.333-.71Z" transform="translate(25 -35.914)" fill="#f6dd02"/>
          <path id="Trazado_106" data-name="Trazado 106" d="M-1725.31-7.269h16.63l-1.852,1.827-.874.8h-11.347Z" transform="translate(25 -35.873)" fill="#06a940"/>
          <path id="Trazado_107" data-name="Trazado 107" d="M-1722.746-4.641h11.418l-2.082,2.014h-7.291Z" transform="translate(25 -35.843)" fill="#005bf6"/>
          <path id="Trazado_108" data-name="Trazado 108" d="M-1720.694-2.627l3.014,3.014a1.652,1.652,0,0,0,1.535-.275c.59-.581,2.739-2.739,2.739-2.739Z" transform="translate(25 -35.802)" fill="#830da8"/>
          <path id="Trazado_109" data-name="Trazado 109" d="M-1702.2-46.959a14.813,14.813,0,0,1,.208-2.191,15.747,15.747,0,0,1,2.7,1.139Z" transform="translate(0 0.044)" fill="#f66e02"/>
        </g>
        <path id="Trazado_110" data-name="Trazado 110" d="M-1743.087-60.175s1.442,2.615,1.694,2.829,2.07-.821,2.07-.821l-3.176-2.008-1.986-.725" fill="none"/>
      </g>
      <path id="Trazado_111" data-name="Trazado 111" d="M-1719.048-89.911l.271.75.324.721.406.591.668.745,2.485-1.539Z" fill="#f6dd02"/>
      <path id="Trazado_112" data-name="Trazado 112" d="M-1700.588-87.237l.45-.507.531-.8.4-.864.21-.8-4.055,1.452Z" fill="#f6dd02"/>
      <path id="Trazado_113" data-name="Trazado 113" d="M-1717.319-87.1l.757.817.821.816.685.679.074.073,1.787-.753-2.849-1.277Z" fill="#06a940"/>
      <path id="Trazado_114" data-name="Trazado 114" d="M-1703.3-84.508l.907-.938,1.077-1.069-3.793.506Z" fill="#06a940"/>
      <path id="Trazado_115" data-name="Trazado 115" d="M-1710.041-79.78l.824.577a2.627,2.627,0,0,0,1.278-.677c.579-.564-1.126-1.148-1.126-1.148Z" fill="#830da8"/>
      <path id="Trazado_116" data-name="Trazado 116" d="M-1709.534-79.335l.327.158h0l.5-.961-1.112-.891Z" fill="#830da8"/>
      <path id="Trazado_117" data-name="Trazado 117" d="M-1709.037-79.176a3.117,3.117,0,0,0,1.187-.806c.529-.586-.665-.958-.665-.958l-1.171.443Z" fill="#830da8"/>
    </g>
  </g>
</svg>
